<svg width="36" height="28" viewBox="0 0 36 28" fill="none" xmlns="http://www.w3.org/2000/svg">
<path fill-rule="evenodd" clip-rule="evenodd" d="M0.599609 25.9996C0.599609 25.2264 1.22641 24.5996 1.99961 24.5996H33.9996C34.7728 24.5996 35.3996 25.2264 35.3996 25.9996C35.3996 26.7728 34.7728 27.3996 33.9996 27.3996H1.99961C1.22641 27.3996 0.599609 26.7728 0.599609 25.9996Z" fill="white"/>
<path fill-rule="evenodd" clip-rule="evenodd" d="M0.599609 17.9996C0.599609 17.2264 1.22641 16.5996 1.99961 16.5996H33.9996C34.7728 16.5996 35.3996 17.2264 35.3996 17.9996C35.3996 18.7728 34.7728 19.3996 33.9996 19.3996H1.99961C1.22641 19.3996 0.599609 18.7728 0.599609 17.9996Z" fill="white"/>
<path fill-rule="evenodd" clip-rule="evenodd" d="M0.599609 9.99961C0.599609 9.22641 1.22641 8.59961 1.99961 8.59961H33.9996C34.7728 8.59961 35.3996 9.22641 35.3996 9.99961C35.3996 10.7728 34.7728 11.3996 33.9996 11.3996H1.99961C1.22641 11.3996 0.599609 10.7728 0.599609 9.99961Z" fill="white"/>
<path fill-rule="evenodd" clip-rule="evenodd" d="M0.599609 1.99961C0.599609 1.22641 1.22641 0.599609 1.99961 0.599609H33.9996C34.7728 0.599609 35.3996 1.22641 35.3996 1.99961C35.3996 2.77281 34.7728 3.39961 33.9996 3.39961H1.99961C1.22641 3.39961 0.599609 2.77281 0.599609 1.99961Z" fill="white"/>
</svg>
