<svg width="59" height="59" viewBox="0 0 59 59" fill="none" xmlns="http://www.w3.org/2000/svg">
<path fill-rule="evenodd" clip-rule="evenodd" d="M29.3144 46.9398C38.9861 46.9398 46.8265 39.0994 46.8265 29.4277C46.8265 19.756 38.9861 11.9156 29.3144 11.9156C19.6428 11.9156 11.8023 19.756 11.8023 29.4277C11.8023 39.0994 19.6428 46.9398 29.3144 46.9398ZM29.3144 49.3056C40.2927 49.3056 49.1923 40.406 49.1923 29.4277C49.1923 18.4494 40.2927 9.5498 29.3144 9.5498C18.3362 9.5498 9.43652 18.4494 9.43652 29.4277C9.43652 40.406 18.3362 49.3056 29.3144 49.3056Z" fill="#7ACB2C"/>
<path fill-rule="evenodd" clip-rule="evenodd" d="M29.3143 37.9444C34.018 37.9444 37.8311 34.1313 37.8311 29.4276C37.8311 24.7239 34.018 20.9107 29.3143 20.9107C24.6106 20.9107 20.7975 24.7239 20.7975 29.4276C20.7975 34.1313 24.6106 37.9444 29.3143 37.9444ZM29.3143 40.3102C35.3246 40.3102 40.1969 35.4379 40.1969 29.4276C40.1969 23.4172 35.3246 18.5449 29.3143 18.5449C23.304 18.5449 18.4316 23.4172 18.4316 29.4276C18.4316 35.4379 23.304 40.3102 29.3143 40.3102Z" fill="#7ACB2C"/>
</svg>
