<svg width="80" height="81" viewBox="0 0 80 81" fill="none" xmlns="http://www.w3.org/2000/svg">
<path fill-rule="evenodd" clip-rule="evenodd" d="M39.9998 64.8068C53.34 64.8068 64.1544 53.9924 64.1544 40.6522C64.1544 27.312 53.34 16.4976 39.9998 16.4976C26.6596 16.4976 15.8452 27.312 15.8452 40.6522C15.8452 53.9924 26.6596 64.8068 39.9998 64.8068ZM39.9998 68.07C55.1423 68.07 67.4176 55.7946 67.4176 40.6522C67.4176 25.5097 55.1423 13.2344 39.9998 13.2344C24.8574 13.2344 12.582 25.5097 12.582 40.6522C12.582 55.7946 24.8574 68.07 39.9998 68.07Z" fill="#7ACB2C"/>
<path fill-rule="evenodd" clip-rule="evenodd" d="M39.9996 52.3995C46.4874 52.3995 51.7469 47.14 51.7469 40.6522C51.7469 34.1643 46.4874 28.9048 39.9996 28.9048C33.5117 28.9048 28.2522 34.1643 28.2522 40.6522C28.2522 47.14 33.5117 52.3995 39.9996 52.3995ZM39.9996 55.6627C48.2897 55.6627 55.0101 48.9422 55.0101 40.6522C55.0101 32.3621 48.2897 25.6416 39.9996 25.6416C31.7095 25.6416 24.989 32.3621 24.989 40.6522C24.989 48.9422 31.7095 55.6627 39.9996 55.6627Z" fill="#7ACB2C"/>
</svg>
