<svg width="81" height="81" viewBox="0 0 81 81" fill="none" xmlns="http://www.w3.org/2000/svg">
<path fill-rule="evenodd" clip-rule="evenodd" d="M45.5874 14.0006L44.7675 13.1807L13.1353 44.8129L14.1339 45.8116C14.676 46.3536 15.5446 46.7527 17.0085 46.9425C18.4009 47.123 19.9181 47.0719 21.6577 47.0133C21.7976 47.0086 21.9388 47.0039 22.0815 46.9992C22.2193 46.9947 22.3575 46.9924 22.4961 46.9924C29.3801 46.9924 34.9606 52.5729 34.9606 59.4569C34.9606 59.5955 34.9583 59.7337 34.9538 59.8715C34.9491 60.0142 34.9444 60.1555 34.9397 60.2953C34.8811 62.0349 34.83 63.5521 35.0105 64.9445C35.2003 66.4084 35.5994 67.277 36.1414 67.819L36.4463 68.1239L68.0785 36.4917L66.8028 35.2161C66.291 34.7042 65.4846 34.3165 64.1467 34.1022C62.806 33.8875 61.3225 33.8989 59.593 33.9123L59.4509 33.9134L59.3542 33.9138C52.4703 33.9138 46.8897 28.3332 46.8897 21.4493L46.8901 21.3526L46.8912 21.2105C46.9045 19.481 46.916 17.9975 46.7013 16.6568C46.487 15.3188 46.0992 14.5125 45.5874 14.0006ZM47.1499 10.7983C45.8341 9.48258 43.7009 9.48258 42.3851 10.7983L10.7529 42.4305C9.43717 43.7463 9.43717 45.8796 10.7529 47.1953L11.7516 48.1939C14.1984 50.6408 18.2121 50.503 21.7204 50.3825C21.8787 50.3771 22.036 50.3717 22.1921 50.3666C22.293 50.3633 22.3944 50.3616 22.4961 50.3616C27.5193 50.3616 31.5914 54.4337 31.5914 59.4569C31.5914 59.5586 31.5897 59.66 31.5864 59.7609C31.5813 59.917 31.5759 60.0743 31.5704 60.2326C31.45 63.7409 31.3122 67.7546 33.7591 70.2014L34.0639 70.5063C35.3796 71.822 37.5129 71.822 38.8287 70.5063L70.4608 38.8741C71.7766 37.5583 71.7766 35.425 70.4608 34.1093L69.1852 32.8337C66.8358 30.4842 63.0313 30.5151 59.6839 30.5422C59.5973 30.5429 59.511 30.5436 59.4251 30.5443L59.3542 30.5446C54.331 30.5446 50.2589 26.4725 50.2589 21.4493L50.2592 21.3783C50.2598 21.2924 50.2606 21.2062 50.2613 21.1196C50.2884 17.7722 50.3193 13.9677 47.9698 11.6182L47.1499 10.7983Z" fill="#7ACB2C"/>
</svg>
