<svg width="59" height="59" viewBox="0 0 59 59" fill="none" xmlns="http://www.w3.org/2000/svg">
<path fill-rule="evenodd" clip-rule="evenodd" d="M32.925 10.293L32.3306 9.69854L9.39727 32.6319L10.1213 33.3559C10.5142 33.7488 11.144 34.0382 12.2053 34.1758C13.2148 34.3067 14.3148 34.2696 15.576 34.2272C15.6774 34.2238 15.7798 34.2203 15.8833 34.2169C15.9831 34.2136 16.0833 34.212 16.1838 34.212C21.1747 34.212 25.2206 38.2579 25.2206 43.2488C25.2206 43.3493 25.2189 43.4494 25.2157 43.5493C25.2123 43.6528 25.2088 43.7552 25.2054 43.8566C25.1629 45.1178 25.1259 46.2178 25.2568 47.2273C25.3943 48.2886 25.6838 48.9184 26.0767 49.3113L26.2977 49.5323L49.231 26.599L48.3062 25.6741C47.9351 25.3031 47.3505 25.022 46.3805 24.8666C45.4085 24.7109 44.333 24.7192 43.0791 24.7289L42.976 24.7297L42.906 24.73C37.9151 24.73 33.8692 20.6841 33.8692 15.6932L33.8695 15.6232L33.8703 15.5201C33.88 14.2662 33.8883 13.1907 33.7326 12.2187C33.5772 11.2487 33.2961 10.664 32.925 10.293ZM34.0578 7.9713C33.1039 7.01738 31.5573 7.01738 30.6034 7.9713L7.67003 30.9046C6.71611 31.8586 6.71611 33.4052 7.67003 34.3591L8.39404 35.0831C10.168 36.8571 13.0779 36.7572 15.6214 36.6699C15.7362 36.6659 15.8503 36.662 15.9634 36.6583C16.0366 36.6559 16.1101 36.6547 16.1838 36.6547C19.8256 36.6547 22.7779 39.6069 22.7779 43.2488C22.7779 43.3225 22.7767 43.396 22.7743 43.4692C22.7706 43.5823 22.7667 43.6964 22.7627 43.8111C22.6754 46.3547 22.5755 49.2646 24.3495 51.0386L24.5705 51.2595C25.5244 52.2135 27.071 52.2135 28.0249 51.2595L50.9583 28.3262C51.9122 27.3723 51.9122 25.8257 50.9583 24.8717L50.0334 23.9469C48.3301 22.2436 45.5719 22.2659 43.145 22.2856C43.0822 22.2861 43.0197 22.2866 42.9574 22.2871L42.906 22.2873C39.2642 22.2873 36.3119 19.335 36.3119 15.6932L36.3121 15.6418C36.3126 15.5795 36.3131 15.517 36.3136 15.4542C36.3333 13.0273 36.3556 10.2691 34.6523 8.56574L34.0578 7.9713Z" fill="#7ACB2C"/>
</svg>
