<svg width="40" height="41" viewBox="0 0 40 41" fill="none" xmlns="http://www.w3.org/2000/svg">
<path d="M10.4156 5.30176C7.36123 5.30176 4.90186 7.76113 4.90186 10.8155V29.9848C4.90186 33.0392 7.36123 35.4985 10.4156 35.4985H20.8052V23.6935H17.6836V19.4433H20.8052V15.8121C20.8052 12.9593 22.6496 10.3399 26.8983 10.3399C28.6186 10.3399 29.8906 10.5051 29.8906 10.5051L29.7906 14.4741C29.7906 14.4741 28.4932 14.4618 27.0776 14.4618C25.5454 14.4618 25.2998 15.1677 25.2998 16.3397V19.4433H29.9123L29.7113 23.6935H25.2998V35.4986H29.5849C32.6392 35.4986 35.0986 33.0392 35.0986 29.9848V10.8155C35.0986 7.76116 32.6392 5.30179 29.5849 5.30179H10.4156L10.4156 5.30176Z" fill="#8EE13B"/>
</svg>
