<svg width="59" height="59" viewBox="0 0 59 59" fill="none" xmlns="http://www.w3.org/2000/svg">
<path fill-rule="evenodd" clip-rule="evenodd" d="M19.4516 41.7902L26.6969 49.0355C27.1415 49.4801 27.8624 49.4801 28.307 49.0355L35.5523 41.7902C35.9969 41.3456 35.9969 40.6247 35.5523 40.1801C35.1077 39.7355 34.3868 39.7355 33.9422 40.1801L28.6405 45.4819L28.6405 15.6553C28.6405 13.769 30.1696 12.2399 32.0559 12.2399L35.9007 12.2399L35.9007 9.96289L32.0559 9.96289C28.9121 9.96289 26.3635 12.5115 26.3635 15.6553L26.3635 45.4819L21.0617 40.1801C20.6171 39.7355 19.8962 39.7355 19.4516 40.1801C19.007 40.6247 19.007 41.3456 19.4516 41.7902Z" fill="#7ACB2C"/>
</svg>
