<svg width="40" height="41" viewBox="0 0 40 41" fill="none" xmlns="http://www.w3.org/2000/svg">
<path d="M20.0002 15.1935C17.133 15.1935 14.7932 17.5334 14.7932 20.4006C14.7932 23.2678 17.133 25.6076 20.0002 25.6076C22.8674 25.6076 25.2072 23.2678 25.2072 20.4006C25.2072 17.5334 22.8674 15.1935 20.0002 15.1935ZM35.6174 20.4006C35.6174 18.2443 35.6369 16.1076 35.5158 13.9553C35.3947 11.4553 34.8244 9.23651 32.9963 7.40839C31.1642 5.57636 28.9494 5.00995 26.4494 4.88886C24.2932 4.76776 22.1564 4.78729 20.0041 4.78729C17.8478 4.78729 15.7111 4.76776 13.5588 4.88886C11.0588 5.00995 8.84003 5.58026 7.0119 7.40839C5.17987 9.24042 4.61347 11.4553 4.49237 13.9553C4.37128 16.1115 4.39081 18.2482 4.39081 20.4006C4.39081 22.5529 4.37128 24.6935 4.49237 26.8459C4.61347 29.3459 5.18378 31.5646 7.0119 33.3928C8.84394 35.2248 11.0588 35.7912 13.5588 35.9123C15.715 36.0334 17.8517 36.0139 20.0041 36.0139C22.1603 36.0139 24.2971 36.0334 26.4494 35.9123C28.9494 35.7912 31.1682 35.2209 32.9963 33.3928C34.8283 31.5607 35.3947 29.3459 35.5158 26.8459C35.6408 24.6935 35.6174 22.5568 35.6174 20.4006ZM20.0002 28.4123C15.5666 28.4123 11.9885 24.8342 11.9885 20.4006C11.9885 15.967 15.5666 12.3889 20.0002 12.3889C24.4338 12.3889 28.0119 15.967 28.0119 20.4006C28.0119 24.8342 24.4338 28.4123 20.0002 28.4123ZM28.34 13.9318C27.3049 13.9318 26.4689 13.0959 26.4689 12.0607C26.4689 11.0256 27.3049 10.1896 28.34 10.1896C29.3752 10.1896 30.2111 11.0256 30.2111 12.0607C30.2114 12.3065 30.1632 12.55 30.0693 12.7771C29.9754 13.0043 29.8376 13.2107 29.6638 13.3845C29.49 13.5583 29.2836 13.6961 29.0564 13.79C28.8293 13.8839 28.5858 13.9321 28.34 13.9318Z" fill="#8EE13B"/>
</svg>
