<svg width="223" height="44" viewBox="0 0 223 44" fill="none" xmlns="http://www.w3.org/2000/svg">
<g clip-path="url(#clip0)">
<path d="M55.4703 8.83273C54.784 3.96766 50.6596 0.400391 45.7945 0.400391C45.6654 0.400391 45.5363 0.400391 45.4072 0.407185L19.9675 1.175C19.8316 1.18179 19.4511 1.20218 19.4443 1.20218L19.3423 1.20897C19.254 1.21577 19.1589 1.21577 19.0706 1.22936C15.4897 1.73217 12.9213 4.87816 13.0504 8.41825L12.2282 8.44543C12.0583 8.44543 11.4808 8.4794 11.4672 8.4794L11.3313 8.49299C11.1274 8.50658 10.9236 8.52017 10.7197 8.55415C4.26469 9.46465 -0.247056 15.4509 0.663446 21.8991C1.27498 26.2342 4.2511 29.8762 8.34157 31.3575C8.35516 31.4662 8.36195 31.5817 8.38234 31.6836C8.85118 34.9995 11.3041 37.6902 14.4977 38.5056C14.5044 38.6619 14.5248 38.8182 14.5452 38.9745C14.9529 41.8894 17.4602 43.9958 20.3208 43.9958C20.5926 43.9958 20.8644 43.9754 21.1362 43.9415C21.5778 43.8803 22.0263 43.758 22.468 43.5881L41.3099 36.0799C48.0911 34.0278 52.4534 27.2059 51.4681 20.1936C51.3798 19.5753 51.2439 18.9774 51.0876 18.393C54.1929 16.3614 56.0003 12.6446 55.4703 8.83273ZM40.6644 34.0822L21.6865 41.6312C21.4012 41.7467 21.1158 41.8215 20.8372 41.8622C18.792 42.1476 16.903 40.7207 16.6176 38.6823C16.5972 38.5532 16.5905 38.4241 16.5905 38.2882L24.5743 35.6586C25.3082 35.414 25.7091 34.6258 25.4645 33.8919C25.2198 33.1581 24.4316 32.7572 23.6978 33.0018L15.4829 35.713C15.1296 35.8285 14.851 36.0799 14.6879 36.3856C12.4728 35.6858 10.7945 33.7561 10.4615 31.3983C10.4548 31.3371 10.448 31.2759 10.4412 31.2148L25.2674 27.5524C26.0148 27.3689 26.4769 26.6079 26.2934 25.8605C26.11 25.1131 25.3489 24.651 24.6015 24.8345L9.28604 28.6192C8.9531 28.7007 8.68131 28.9046 8.49105 29.1628C5.4266 27.8242 3.21829 24.9772 2.74265 21.6205C1.98843 16.3002 5.69839 11.374 11.0051 10.6266C11.1614 10.6062 11.3177 10.5926 11.474 10.5858L11.6099 10.579C11.6099 10.579 12.0991 10.5518 12.269 10.545L36.6419 9.81118C36.805 9.80439 36.968 9.80439 37.1311 9.80439C43.3008 9.80439 48.526 14.3229 49.3957 20.4926C50.2383 26.4992 46.4808 32.3427 40.6644 34.0822Z" fill="#8EE13B"/>
<path d="M67.354 13.3242H74.1216C80.7805 13.3242 84.2594 16.3411 84.2594 21.5867C84.2594 28.9794 79.5574 32.7573 72.8713 32.7573H64.2827L67.354 13.3242ZM72.9257 27.7835C75.861 27.7835 77.4646 25.6908 77.4646 21.8857C77.4646 19.4939 76.3231 18.298 73.9857 18.298H73.1431L71.6211 27.7835H72.9257Z" fill="#8EE13B"/>
<path d="M88.0918 13.3242H96.0009C101.138 13.3242 103.502 15.5529 103.502 19.0318C103.502 22.1846 101.79 24.1687 99.3168 24.9297L102.66 32.7573H96.0824L93.3373 26.2615H92.5763L91.5707 32.7573H85.0205L88.0918 13.3242ZM94.6963 22.1031C96.1912 22.1031 97.1152 21.4508 97.1152 19.9016C97.1152 18.7872 96.4358 18.2165 95.0768 18.2165H93.8537L93.2286 22.1031H94.6963Z" fill="#8EE13B"/>
<path d="M107.606 13.3242H121.685L120.87 18.3524H113.341L112.961 20.6898H118.94L118.233 25.2015H112.281L111.874 27.7292H119.837L119.049 32.7573H104.535L107.606 13.3242Z" fill="#8EE13B"/>
<path d="M133.399 29.7405H127.502L126.224 32.7574H119.973L129.132 13.3311H137.585L140.548 32.7574H133.726L133.399 29.7405ZM129.377 25.3375H132.937L132.231 18.597L129.377 25.3375Z" fill="#8EE13B"/>
<path d="M145.44 13.3242H153.621L155.252 22.1303L159.763 13.3242H168.298L165.226 32.7505H158.703L160.47 21.6614L154.491 32.7505H152.289L149.924 21.6614L148.185 32.7505H142.369L145.44 13.3242Z" fill="#8EE13B"/>
<path d="M171.695 13.3242H185.774L184.958 18.3524H177.43L177.049 20.6898H183.029L182.322 25.2015H176.37L175.962 27.7292H183.926L183.137 32.7573H168.624L171.695 13.3242Z" fill="#8EE13B"/>
<path d="M188.709 13.3242H196.618C201.755 13.3242 204.12 15.5529 204.12 19.0318C204.12 22.1846 202.408 24.1687 199.934 24.9297L203.277 32.7573H196.7L193.955 26.2615H193.194L192.188 32.7573H185.638L188.709 13.3242ZM195.314 22.1031C196.809 22.1031 197.733 21.4508 197.733 19.9016C197.733 18.7872 197.053 18.2165 195.694 18.2165H194.471L193.846 22.1031H195.314Z" fill="#8EE13B"/>
</g>
<defs>
<clipPath id="clip0">
<rect width="221.517" height="43.5954" fill="white" transform="translate(0.540771 0.400391)"/>
</clipPath>
</defs>
</svg>
