<svg width="85" height="68" viewBox="0 0 85 68" fill="none" xmlns="http://www.w3.org/2000/svg">
<path d="M84.1955 13.6998C83.1481 6.27457 76.8532 0.830078 69.428 0.830078C69.2309 0.830078 69.0339 0.830078 68.8369 0.840449L30.0099 2.01231C29.8025 2.02268 29.2217 2.05379 29.2114 2.05379L29.0558 2.06416C28.921 2.07453 28.7758 2.07453 28.641 2.09527C23.1758 2.86269 19.2557 7.66421 19.4528 13.0672L18.1979 13.1087C17.9387 13.1087 17.0572 13.1605 17.0364 13.1605L16.829 13.1813C16.5179 13.202 16.2068 13.2228 15.8957 13.2746C6.04377 14.6643 -0.842212 23.8006 0.547429 33.6422C1.48077 40.2585 6.02303 45.8171 12.266 48.0779C12.2868 48.2438 12.2972 48.4201 12.3283 48.5756C13.0438 53.6364 16.7876 57.7431 21.6617 58.9876C21.672 59.2261 21.7032 59.4646 21.7343 59.7031C22.3565 64.1521 26.1832 67.3669 30.5492 67.3669C30.964 67.3669 31.3788 67.3358 31.7936 67.2839C32.4677 67.1906 33.1521 67.0039 33.8262 66.7447L62.5835 55.2853C72.9332 52.1534 79.591 41.7415 78.0873 31.0392C77.9525 30.0955 77.7451 29.1829 77.5066 28.291C82.2459 25.1903 85.0044 19.5176 84.1955 13.6998ZM61.5983 52.2364L32.6336 63.758C32.1981 63.9343 31.7625 64.0484 31.3373 64.1106C28.2158 64.5461 25.3328 62.3683 24.8973 59.2572C24.8661 59.0602 24.8558 58.8631 24.8558 58.6557L37.0411 54.6424C38.1611 54.269 38.7729 53.066 38.3996 51.946C38.0262 50.826 36.8233 50.2142 35.7033 50.5875L23.1654 54.7253C22.6261 54.9016 22.2009 55.2853 21.952 55.752C18.5713 54.6838 16.0098 51.7386 15.5016 48.1401C15.4913 48.0467 15.4809 47.9534 15.4705 47.8601L38.0988 42.2704C39.2396 41.9904 39.9448 40.8289 39.6648 39.6882C39.3848 38.5474 38.2233 37.8422 37.0825 38.1222L13.7075 43.8986C13.1994 44.023 12.7846 44.3341 12.4942 44.7282C7.81712 42.6852 4.44672 38.34 3.72079 33.217C2.56967 25.0969 8.23193 17.5784 16.3313 16.4376C16.5698 16.4065 16.8083 16.3858 17.0468 16.3754L17.2542 16.365C17.2542 16.365 18.0009 16.3235 18.2602 16.3132L55.459 15.1932C55.7079 15.1828 55.9568 15.1828 56.2057 15.1828C65.622 15.1828 73.5969 22.0791 74.9243 31.4955C76.2103 40.663 70.4754 49.5816 61.5983 52.2364Z" fill="white"/>
</svg>
