<svg width="49" height="49" viewBox="0 0 49 49" fill="none" xmlns="http://www.w3.org/2000/svg">
<path fill-rule="evenodd" clip-rule="evenodd" d="M32.2643 14.1683C33.2239 14.1683 34.021 14.8642 34.1782 15.7789C34.4312 15.7347 34.6843 15.7168 34.9344 15.7235C34.2549 15.7053 33.5532 15.8684 32.8937 16.2499L26.1726 20.1374C24.9695 20.8333 23.4863 20.8333 22.2832 20.1374L15.5621 16.2499C15.1451 16.0087 14.7113 15.8548 14.2769 15.7789C14.4342 14.8642 15.2312 14.1683 16.1907 14.1683L24.2275 14.1683L32.2643 14.1683ZM13.9293 15.7345C13.3718 15.6894 12.8204 15.769 12.3097 15.9533C12.3921 13.881 14.0982 12.2262 16.1907 12.2262L24.2275 12.2262L32.2643 12.2262C34.3568 12.2262 36.0629 13.8809 36.1454 15.9532C37.5985 16.4775 38.7226 17.85 38.7226 19.6121V31.2321C38.7226 33.3772 36.9836 35.1162 34.8384 35.1162H13.6174C11.4722 35.1162 9.73322 33.3772 9.73322 31.2321L9.73322 19.6121C9.73322 17.231 11.7858 15.5612 13.9293 15.7345ZM36.7805 19.6121V31.2321C36.7805 32.3046 35.911 33.1741 34.8384 33.1741H13.6174C12.5448 33.1741 11.6753 32.3046 11.6753 31.2321L11.6753 19.6121C11.6753 18.1164 13.295 17.1821 14.5897 17.931L21.3108 21.8185C23.1155 22.8623 25.3403 22.8623 27.145 21.8185L33.8661 17.931C35.1608 17.1821 36.7805 18.1164 36.7805 19.6121Z" fill="white"/>
</svg>
