<svg width="40" height="41" viewBox="0 0 40 41" fill="none" xmlns="http://www.w3.org/2000/svg">
<g opacity="0.1">
<path fill-rule="evenodd" clip-rule="evenodd" d="M26.6826 11.5903C27.4935 11.5903 28.1669 12.1783 28.2998 12.9512C28.5136 12.9138 28.7275 12.8988 28.9388 12.9044C28.3646 12.889 27.7717 13.0269 27.2144 13.3492L21.5352 16.6341C20.5186 17.2221 19.2652 17.2221 18.2486 16.6341L12.5694 13.3492C12.2171 13.1454 11.8505 13.0154 11.4834 12.9512C11.6163 12.1783 12.2898 11.5903 13.1006 11.5903L19.8916 11.5903L26.6826 11.5903ZM11.2163 12.916C10.7362 12.8731 10.2608 12.9399 9.82117 13.0986C9.89079 11.3475 11.3324 9.94923 13.1006 9.94923L19.8916 9.94922L26.6826 9.94923C28.4508 9.94923 29.8924 11.3474 29.962 13.0985C31.1899 13.5415 32.1398 14.7013 32.1398 16.1903V26.009C32.1398 27.8216 30.6703 29.291 28.8577 29.291H10.9261C9.11347 29.291 7.64404 27.8216 7.64404 26.009V16.1902C7.64404 14.1683 9.39552 12.7535 11.2163 12.916ZM30.4987 16.1903V26.009C30.4987 26.9153 29.764 27.65 28.8577 27.65H10.9261C10.0198 27.65 9.28507 26.9153 9.28507 26.009V16.1902C9.28507 14.9264 10.6537 14.1369 11.7477 14.7697L17.427 18.0546C18.9519 18.9367 20.8319 18.9367 22.3568 18.0546L28.0361 14.7697C29.1301 14.1369 30.4987 14.9264 30.4987 16.1903Z" fill="black"/>
</g>
</svg>
