<svg width="40" height="41" viewBox="0 0 40 41" fill="none" xmlns="http://www.w3.org/2000/svg">
<path d="M37.6103 10.94C37.8677 10.085 37.6103 9.45801 36.393 9.45801H32.3607C31.3346 9.45801 30.8658 10.0004 30.6083 10.5962C30.6083 10.5962 28.5581 15.5958 25.6529 18.8375C24.7151 19.7808 24.2867 20.0786 23.7755 20.0786C23.5199 20.0786 23.1485 19.7808 23.1485 18.9257V10.94C23.1485 9.91402 22.8525 9.45801 21.9975 9.45801H15.6611C15.0212 9.45801 14.6351 9.93241 14.6351 10.3847C14.6351 11.3556 16.0877 11.5799 16.2366 14.316V20.2515C16.2366 21.5515 16.0031 21.7887 15.4883 21.7887C14.1221 21.7887 10.7976 16.7707 8.82464 11.0265C8.44034 9.91034 8.05236 9.45985 7.02266 9.45985H2.99212C1.83922 9.45985 1.60938 10.0023 1.60938 10.598C1.60938 11.6682 2.97557 16.9638 7.97329 23.9676C11.3051 28.7502 15.9958 31.3428 20.269 31.3428C22.8304 31.3428 23.1467 30.7673 23.1467 29.7744V26.1594C23.1467 25.0083 23.3912 24.7766 24.2021 24.7766C24.7979 24.7766 25.8239 25.0782 28.2161 27.3822C30.9485 30.1145 31.4008 31.341 32.9362 31.341H36.9667C38.1178 31.341 38.6933 30.7655 38.3623 29.6291C38.0001 28.4983 36.6946 26.8526 34.9625 24.9054C34.0211 23.7948 32.6144 22.5996 32.186 22.002C31.5884 21.2315 31.7612 20.8914 32.186 20.2074C32.1878 20.2092 37.0991 13.2918 37.6103 10.94Z" fill="#8EE13B"/>
</svg>
